/* XPM */
static char *_d6032549ebe45aecf036986eb5305f5YIUL531qWwHJf5jg[] = {
/* columns rows colors chars-per-pixel */
"69 98 14 1 ",
"  c #224124",
". c #254927",
"X c #254928",
"o c #294F2C",
"O c #29512D",
"+ c #44814A",
"@ c #55A15E",
"# c #4DC56B",
"$ c #50CB6E",
"% c #63ED85",
"& c #64EC86",
"* c #6BFF93",
"= c #6BFF94",
"- c #84FFB0",
/* pixels */
"---------------------------------------------------------------------",
"---------------------------------------------------------------------",
"*$$$$$$$$$$$$$$$$$$$$$$$$$$$$########@@######$$$$$$$$$$$$$$$$$$$$$$==",
"=$$$$$$$$$$$$$$$$$$$$$$$$$$$$########++####$$$$$$$$$$$$$$$$$$$$$$$$*=",
"=$$$$$$$$$$$$$$$$$$$$$$$$$$$$$$$$$$##++##$$$$$$$$$$$$$$$$$$$$$$$$$$==",
"=$$$$$$$$$$$$$$$$$$$$$$$$$$$$$$$$$$##++##$$$$$$$$$$$$$$$$$$$$$$$$$$*=",
"=$$$$$$$$$$$$$$$$$$$$$$$$$$$$$$$$$$##++##$$$$$$$$$$$$$$$$$$$$$$$$$$==",
"=$$$$$$$$$$$$$$$$$$$$$$$$$$$$$$$$$$##++##$$$$$$$$$$$$$$$$$$$$$$$$$$*=",
"*$$$$$$$$$$$$$$$$$$$$$$$$$$$$$$$$$$##++##$$$$$$$$$$$$$$$$$$$$$$$$$$==",
"=##$$$$$$$$$$$$$$$$$$$$$$$$$$$$$$$$##++##$$$$$$$$$$$$$$$$$$$$$$$$##*=",
"*##$$$$$$$$$$$$$$$$$$$$$$$$$$$$$$$$##++##$$$$$$$$$$$$$$$$$$$$$$$$##==",
"=##$$$$$$$$$$$$$$$$$$$$$$$$$$$$$$$$$$++##$$$$$$$$$$$$$$$$$$$$$$$$##*=",
"=##$$$$$$$$$$$$$$$$$$$$$$$$$$$$$$$$$$++##$$$$$$$$$$$$$$$$$$$$$$$$##==",
"=##$$$$$$$$$$$$$$$$$$$$$$$$$$$$$$$$$$++####$$$$$$$$$$$$$$$$$$$$##$$*=",
"=####$$$$###$$$$$$$$$$$$$$$$$$$$$$$$$++$$$$$$$$$$$$$$$$$$$$$$$$####==",
"=####$$$$###$$$$$$$$$$$$$$$$$$$$$$$$$++$$$$$$$$$$$$$$$$$$$$$$$$####*=",
"*########$$$$$$$$$$$$$$$$$$$$$$$$$$$$++$$$$$$$$$$$$$$$$$$$$$$$$####==",
"=$$$$$$$$$$$$$$$$$$$$$$$$$$$$$$$$$$@@++@@$$$$$$$$$$$$$$$$$$$#######*=",
"*++++++++++++++++++++++++++++++++++++++++++++++++++++++++++++++++++==",
"=++++++++++++++++++++++++++++++++++++++++++++++++++++++++++++++++++*=",
"=########$$$$$$$$$$$$$$$$$##@++@@####$$$$$$$$$$$$$$$$$$$$$$$$$#####==",
"=########$$$$$$$$$$$$$######$++######$$$$$$$$$$$$$$$$$$$$$$$###$$##*=",
"=########$$$$$$$$$$$$$######$++######$$$$$$$$$$$$$$$$$$$$$$$###$$##==",
"=##$$$$$$$$$$$$$$$$$$$$$$$$$#++######$$$$$$$$$$$$$$$$$$$$$$$$$$$$##*=",
"*##$$$$$$$$$$$$$$$$$$$$$$$$$#++####$$$$$$$$$$$$$$$$$$$$$$$$$$$$##$$==",
"=##$$$$$$$$$$$$$$$$$$$$$$$$$#++##$$$$$$$$$$$$$$$$$$$$$$$$$$$$$$##$$*=",
"*##$$$$$$$$$$$$$$$$$$$$$$$$$#++##$$$$$$$$$$$$$$$$$$$$$$$$$$$$$$##$$==",
"=##$$$$$$$$$$$$$$$$$$$$$$$$$#++##$$$$$$$$$$$$$$$$$$$$$$$$$$$$$$####*=",
"=####$$$$$$$$$$$$$$$$$$$$$$$#++##$$$$$$$$$$$$$$$$$$$$$$$$$$$$$$$$##==",
"=####$$$$$$$$$$$$$$$$$$$$$$$#++##$$$$$$$$$$$$$$$$$$$$$$$$$$$$$$$$##*=",
"=$$$$$$$$$$$$$$$$$$$$$$$$$$$#++##$$$$$$$$$$$$$$$$$$$$$$$$$$$$$$$$##==",
"=$$$$$$$$$$$$$$$$$$$$$$$$$$$$++$$$$$$$$$$$$$$$$$$$$$$$$$$$$$$$$$$##*=",
"*$$$$$$$$$$$$$$$$$$$$$$$$$$$$++@@$$$$$$$$$$$$$$$$$$$$$$$$$$$$$$$$@@==",
"=$$$$$$$$$$$$$$$$$$$$$$$$$$$$++@@$$$$$$$$$$$$$$$$$$$$$$$$$$$$$$$$@@*=",
"*$$$$$$$$$$$$$$$$$$$$$$$$$$$$++++++++++++++++++++++++++++++++++++++==",
"=$$$$$$$$$$$$$$$$$$$$$$$$$$$$++@@$$$$$$$$$$$$$$$$$$$$$$$$$$$$$$$$@@*=",
"=$$$$$$$$$$$$$$$$$$$$$$$$$$$$++@@$$$$$$$$$$$$$$$$$$$$$$$$$$$$$$$$@@==",
"=$$$$$$$$$$$$$$$$$$$$$$$$$$$$++$$$$$$$$$$$$$$$$$$$$$$$$$$$$$$$$$$$$*=",
"=$$$$$$$$$$$$$$$$$$$$$$$$$$$$++$$$$$$$$$$$$$$$$$$$$$$$$$$$$$$$$$$$$==",
"=$$$$$$$$$$$$$$$$$$$$$$$$$$$$++$$$$$$$$$$$$$$$$$$$$$$$$$$$$$$$$$$##*=",
"*$$$$$$$$$$$$$$$$$$$$$$$$$$$$++$$$$$$$$$$$$$$$$$$$$$$$$$$$$$$$$$$##==",
"=$$$$$$$$$$$$$$$$$$$$$$$$$$$$++##$$$$$$$$$$$$$$$$$$$$$$$$$$$$$$####*=",
"*$$$$$$$$$$$$$$$$$$$$$$$$$$$$++##$$$$$$$$$$$$$$$$$$$$$$$$$$$$$$####==",
"=$$$$$$$$$$$$$$$$$$$$$$$$$$$$++##$$$$$$$$$$$$$$$$$$$$$$$$$$$$$$####*=",
"=$$$$$$$$$$$$$$$$$$$$$$$$$$$$++##$$$$$$$$$$$$$$$$$$$$$$$$$$$$$$####==",
"=$$$$$$$$$$$$$$$$$$$$$$$$$$$$++##$$$$$$$$$$$$$$$$$$$$$$$$$$$$$$####*=",
"=$$$$$$$$$$$$$$$$$$$$$$$$$$$$++##$$$$$$$$$$$$$$$$$$$$$$$$$$$$$$####==",
"=$$$$$$$$$$$$$$$$$$$$$$$$$$$$++##$$$$$$$$$$$$$$$$$$$$$$$$$$$$$$####*=",
"*$$$$$$$$$$$$$$$$$$$$$$$$$$$$++##$$##$$$$$$$$$$$$$$$$$$$$$$$$$#####==",
"=$$$$$$$$$$$$$$$$$$$$$$$$$$$$++######$$$$$$$$$$$$$$$$$$$$$$$$$#####*=",
"*$$$$$$$$$$$$$$$$$$$$$$$$$$$$++######$$$$$$$$$$$$$$$$$$$$$$$$$#####==",
"&%&%&%&&&%&%&%&&&%&%&%&&&%&%&%&&&%&%&%&&&%&%&%&&&%&%&%&&&%&%&%&&&%&%&",
"                                                                     ",
"Oooooooooooooooooooooooooooooo ooooooooooooooooooooooooooooooooooooOO",
"Oooooooooooooooooooooooooooooo ooooooooooooooooooooooooooooooooooooOO",
"Oooooooooooooooooooooooooooooo ooooooooooooooooooooooooooooooooooooOO",
"Oooooooooooooooooooooooooooooo ooooooooooooooooooooooooooooooooooooOO",
"Oooooooooooooooooooooooooooooo ooooooooooooooooooooooooooooooooooooOO",
"Oooooooooooooooooooooooooooooo ooooooooooooooooooooooooooooooooooooOO",
"Oooooooooooooooooooooooooooooo ooooooooooooooooooooooooooooooooooooOO",
"Oooooooooooooooooooooooooooooo ooooooooooooooooooooooooooooooooooooOO",
"Oooooooooooooooooooooooooooooo ooooooooooooooooooooooooooooooooooooOO",
"XooXXoo.XooXXoX.oo.XooX.oo.Xoo oo..oo.Xoo..oo.XoX.ooX.ooX.ooX.ooXooXX",
"X.XooX.oo.XooXoo..oo.Xoo..oo.X X.oo..ooX.oo..ooXooX.oo.XooX.oo.Xo.XOO",
"XooXX.X..X.XXoX.oo.XooX.oo.XX. ..X.oo.XooX.oo.Xo.XooX.X..X.XX.X..ooXX",
"Xoo..X..X.X..o..ooX.oo..ooX..X .X.XooX.oo.XooX.oX.oo.X..X.X..X..XooXX",
"XX.XX..X.X.XX.oo.X.XX..X.X.XX. X.X.XX..X.ooXX..X.X.XX..X.X.XX..X.X.XX",
"X.X...X.X.X...X.X.X...X.X.X... .X.X...X.X.X...X.X.X...X.X.X...X.X.XXX",
"X.X.XXX.X.X.XXX.X.X.XXX.X.X.XX .X.X.XXX.X.X.XXX.X.X.XXX.X.X.XXX.X.XXX",
"XX..XX.X.X..XX.X.X..XX.X.X..XX X.X..XX.X.X..XX.X.X..XX.X.X..XX.X.X.XX",
"X..XX.X.X..XX.X.X..XX.X.X..XX. .X..XX.X.X..XX.X.X..XX.X.X..XX.X.X..XX",
"                                                                     ",
"XX.XX.X..X.XX.X..X.XX.X..X.XX.X..X.  .X..X.XX.X..X.XX.X..X.XX.X..X.XX",
"Ooo..X.oo.X..X..ooooooooooooooooooo  X..X.X..X..ooooooooX.X..XooX.XOO",
"Ooooooooooooooooooooooooooooooooooo  ooooooooooooooooooooooooooooooOO",
"Ooooooooooooooooooooooooooooooooooo  ooooooooooooooooooooooooooooooOO",
"Ooooooooooooooooooooooooooooooooooo  ooooooooooooooooooooooooooooooOO",
"Ooooooooooooooooooooooooooooooooooo  ooooooooooooooooooooooooooooooOO",
"Ooooooooooooooooooooooooooooooooooo  ooooooooooooooooooooooooooooooOO",
"Ooooooooooooooooooooooooooooooooooo  ooooooooooooooooooooooooooooooOO",
"Ooooooooooooooooooooooooooooooooooo  ooooooooooooooooooooooooooooooOO",
"Ooooooooooooooooooooooooooooooooooo  ooooooooooooooooooooooooooooooOO",
"Ooooooooooooooooooooooooooooooooooo  ooooooooooooooooooooooooooooooOO",
"Ooooooooooooooooooooooooooooooooooo  ooooooooooooooooooooooooooooooOO",
"Ooooooooooooooooooooooooooooooooooo  ooooooooooooooooooooooooooooooOO",
"                oo                 oo                                ",
"X..XX.X.X..XX.X.  .XX.X.X..XX.X.X..XX.X.X..XX.X.X..XX.X.X..XX.X.X..XX",
"OooooooX..X..Xoo  ooooooooX..Xooo.X..X.X..X..X.X..X..X.X..X..X.X.ooOO",
"Oooooooooooooooo  oooooooooooooooooooooooooooooooooooooooooooooooooOO",
"Oooooooooooooooo  oooooooooooooooooooooooooooooooooooooooooooooooooOO",
"Oooooooooooooooo  oooooooooooooooooooooooooooooooooooooooooooooooooOO",
"Xoo..oo.Xoo..oX.  X.ooX.ooX.ooXoo.Xoo.Xoo.X..oo.ooX.ooX.ooX.ooX.o.XOO",
"O.XooXXoo.XooXoo  ooXXooX.ooXXo.Xoo.Xoo.XooooXXoX.ooXXooX.ooXXooXooXX",
"XX..XX.X.oo.Xo.X  ..oo.Xoo..XX.X.X..XX.ooX..XX.X.X..oo.Xoo..XX.XoX.OO",
"X..XX.X.XooXXoX.  .XooX.oo.XX.X.X..XX.Xoo..XX.X.X..XooX.oo.XX.X.o..OO",
"X.X..X.X..X..Xoo  X..X.X..X..X.X..X..X.X..X..X.X..X..X.X..oo.X.X..XXX",
"XX.XX.X..X.XX.X.  .XX.X..X.XX.X..X.XX.X..X.XX.X..X.XX.X..X.XX.X..X.XX",
"X.X..X..X.X..X..  X..X..X.X..X..X.X..X..X.X..X..X.X..X..X.X..X..X.XXX"
};
